<svg width="16" height="16" viewBox="0 0 16 16" fill="none" xmlns="http://www.w3.org/2000/svg">
<path fill-rule="evenodd" clip-rule="evenodd" d="M3.404 12.596C2.6481 11.8401 2.09028 10.9095 1.77995 9.88661C1.46961 8.86369 1.41635 7.78002 1.62488 6.7316C1.8334 5.68317 2.29728 4.70236 2.97542 3.87604C3.65355 3.04972 4.52502 2.4034 5.51261 1.99434C6.50021 1.58527 7.57344 1.42609 8.63725 1.53089C9.70106 1.63569 10.7226 2.00124 11.6114 2.59515C12.5002 3.18906 13.2288 3.99301 13.7326 4.93577C14.2365 5.87853 14.5001 6.93101 14.5 7.99997C14.5 8.33149 14.3683 8.64943 14.1339 8.88385C13.8995 9.11827 13.5815 9.24997 13.25 9.24997C12.9185 9.24997 12.6005 9.11827 12.3661 8.88385C12.1317 8.64943 12 8.33149 12 7.99997C11.9999 7.03253 11.6492 6.09791 11.0128 5.36922C10.3765 4.64054 9.49757 4.16719 8.53895 4.03684C7.58033 3.90649 6.60696 4.12798 5.79913 4.66028C4.9913 5.19258 4.40376 5.99962 4.14534 6.93191C3.88693 7.8642 3.97515 8.85855 4.39366 9.73078C4.81218 10.603 5.53263 11.294 6.42156 11.6758C7.31049 12.0575 8.30766 12.1042 9.22835 11.8071C10.149 11.51 10.9309 10.8893 11.429 10.06C11.8257 10.4105 12.3152 10.6391 12.8386 10.7183C13.3621 10.7975 13.8972 10.7239 14.3799 10.5064C14.8626 10.2889 15.2722 9.9367 15.5595 9.49209C15.8469 9.04748 15.9999 8.52937 16 7.99997C15.9999 6.14913 15.3581 4.35557 14.1839 2.92489C13.0097 1.49422 11.3757 0.514941 9.56046 0.153922C7.74517 -0.207098 5.86086 0.0724768 4.2286 0.945009C2.59633 1.81754 1.3171 3.22905 0.608871 4.93902C-0.0993615 6.64899 -0.192774 8.55164 0.344549 10.3228C0.881871 12.0939 2.01668 13.6239 3.55563 14.6521C5.09457 15.6804 6.94243 16.1432 8.78436 15.9617C10.6263 15.7802 12.3483 14.9657 13.657 13.657C13.7895 13.5148 13.8616 13.3267 13.8582 13.1324C13.8547 12.9381 13.776 12.7528 13.6386 12.6153C13.5012 12.4779 13.3158 12.3992 13.1215 12.3958C12.9272 12.3924 12.7392 12.4645 12.597 12.597C11.9934 13.2006 11.2768 13.6795 10.4881 14.0062C9.69947 14.3329 8.85417 14.5011 8.0005 14.5011C7.14684 14.5011 6.30153 14.3329 5.51286 14.0062C4.72419 13.6795 4.00759 13.2006 3.404 12.597V12.596ZM8 5.49997C7.33696 5.49997 6.70108 5.76336 6.23223 6.2322C5.76339 6.70104 5.5 7.33692 5.5 7.99997C5.5 8.66301 5.76339 9.29889 6.23223 9.76773C6.70108 10.2366 7.33696 10.5 8 10.5C8.66304 10.5 9.29893 10.2366 9.76777 9.76773C10.2366 9.29889 10.5 8.66301 10.5 7.99997C10.5 7.33692 10.2366 6.70104 9.76777 6.2322C9.29893 5.76336 8.66304 5.49997 8 5.49997Z" fill="black"/>
</svg>
